<svg xmlns="http://www.w3.org/2000/svg" viewBox="0 0 64 64">
  <defs>
    <linearGradient id="lpGrad" x1="0" y1="0" x2="1" y2="1">
      <stop offset="0%" stop-color="#6c47ff"/>
      <stop offset="100%" stop-color="#ff5cab"/>
    </linearGradient>
  </defs>
  <rect width="64" height="64" rx="14" fill="url(#lpGrad)"/>
  <path fill="#fff" d="M24 14h6v4a2 2 0 0 0 4 0v-4h6a4 4 0 0 1 4 4v6h-4a2 2 0 0 0 0 4h4v6a4 4 0 0 1-4 4h-6v-4a2 2 0 0 0-4 0v4h-6a4 4 0 0 1-4-4v-6h4a2 2 0 0 0 0-4h-4v-6a4 4 0 0 1 4-4z" opacity="0.95"/>
  <text x="32" y="58" font-family="Poppins, Arial, sans-serif" font-size="11" font-weight="800" fill="#fff" text-anchor="middle" opacity="0.9">LP</text>
</svg>
